{
  "asset": {
    "generator": "Khronos glTF Blender I/O v3.3.32",
    "version": "2.0"
  },
  "scene": 0,
  "scenes": [
    {
      "name": "Scene",
      "nodes": [
        0
      ]
    }
  ],
  "nodes": [
    {
      "mesh": 0,
      "name": "seeding_tray_01"
    }
  ],
  "materials": [
    {
      "doubleSided": true,
      "name": "seeding_tray_01",
      "normalTexture": {
        "index": 0
      },
      "pbrMetallicRoughness": {
        "baseColorTexture": {
          "index": 1
        },
        "metallicRoughnessTexture": {
          "index": 2
        }
      }
    }
  ],
  "meshes": [
    {
      "name": "Plane.007",
      "primitives": [
        {
          "attributes": {
            "POSITION": 0,
            "NORMAL": 1,
            "TEXCOORD_0": 2
          },
          "indices": 3,
          "material": 0
        }
      ]
    }
  ],
  "textures": [
    {
      "sampler": 0,
      "source": 0
    },
    {
      "sampler": 0,
      "source": 1
    },
    {
      "sampler": 0,
      "source": 2
    }
  ],
  "images": [
    {
      "mimeType": "image/jpeg",
      "name": "seeding_tray_01_nor_gl",
      "uri": "textures/seeding_tray_01_nor_gl_1k.jpg"
    },
    {
      "mimeType": "image/jpeg",
      "name": "seeding_tray_01_diff",
      "uri": "textures/seeding_tray_01_diff_1k.jpg"
    },
    {
      "mimeType": "image/jpeg",
      "name": "seeding_tray_01_metal-seeding_tray_01_rough",
      "uri": "textures/seeding_tray_01_arm_1k.jpg"
    }
  ],
  "accessors": [
    {
      "bufferView": 0,
      "componentType": 5126,
      "count": 5818,
      "max": [
        0.11010376363992691,
        0.0614255890250206,
        0.11010388284921646
      ],
      "min": [
        -0.11010386049747467,
        0.0006606094539165497,
        -0.11010374873876572
      ],
      "type": "VEC3"
    },
    {
      "bufferView": 1,
      "componentType": 5126,
      "count": 5818,
      "type": "VEC3"
    },
    {
      "bufferView": 2,
      "componentType": 5126,
      "count": 5818,
      "type": "VEC2"
    },
    {
      "bufferView": 3,
      "componentType": 5123,
      "count": 25002,
      "type": "SCALAR"
    }
  ],
  "bufferViews": [
    {
      "buffer": 0,
      "byteLength": 69816,
      "byteOffset": 0,
      "target": 34962
    },
    {
      "buffer": 0,
      "byteLength": 69816,
      "byteOffset": 69816,
      "target": 34962
    },
    {
      "buffer": 0,
      "byteLength": 46544,
      "byteOffset": 139632,
      "target": 34962
    },
    {
      "buffer": 0,
      "byteLength": 50004,
      "byteOffset": 186176,
      "target": 34963
    }
  ],
  "samplers": [
    {
      "magFilter": 9729,
      "minFilter": 9987
    }
  ],
  "buffers": [
    {
      "byteLength": 236180,
      "uri": "seeding_tray_01.bin"
    }
  ]
}